<?xml version="1.0" standalone="no"?>
<!DOCTYPE svg PUBLIC "-//W3C//DTD SVG 1.1//EN" "http://www.w3.org/Graphics/SVG/1.1/DTD/svg11.dtd">
<svg version="1.1" xmlns="http://www.w3.org/2000/svg" viewBox="0 0 359.52468125115774 445.8232948673576" width="359.52468125115774" height="445.8232948673576"><!-- svg-source:excalidraw --><metadata></metadata><defs><style class="style-fonts">
      </style></defs><g transform="translate(33.65499840351379 197.7689881323792) rotate(0 141.17544881372532 48.607237109896744)" stroke="none"><path fill="#d3d3d3" d="M 2.33,2.19 Q 2.33,2.19 0.28,4.56 -1.75,6.93 -4.71,11.99 -7.68,17.06 -10.72,24.77 -13.77,32.48 -15.64,41.82 -17.51,51.16 -18.47,61.79 -19.42,72.41 -19.55,82.80 -19.68,93.18 -17.93,101.94 -16.17,110.71 -11.79,117.30 -7.41,123.88 0.19,128.50 7.79,133.11 19.70,135.82 31.61,138.53 46.56,138.96 61.50,139.38 77.36,136.36 93.22,133.34 107.54,127.82 121.87,122.31 133.24,115.80 144.62,109.30 152.71,102.70 160.80,96.10 165.01,90.41 169.23,84.72 170.48,80.22 171.73,75.71 170.32,72.51 168.91,69.30 164.85,67.03 160.80,64.75 154.61,63.34 148.43,61.93 140.69,63.15 132.96,64.37 124.82,69.50 116.69,74.62 110.34,82.53 103.98,90.43 99.86,101.95 95.73,113.47 93.47,127.02 91.20,140.56 91.82,153.35 92.44,166.14 96.31,177.89 100.17,189.64 106.81,199.16 113.45,208.68 122.71,215.47 131.97,222.26 143.10,226.01 154.23,229.75 167.07,229.85 179.92,229.95 194.28,225.23 208.63,220.51 222.67,210.83 236.70,201.15 249.62,185.27 262.55,169.40 272.87,147.29 283.18,125.18 288.96,95.40 294.74,65.63 295.14,33.72 295.53,1.81 290.61,-23.54 285.69,-48.90 278.52,-67.40 271.35,-85.90 264.87,-98.27 258.39,-110.63 253.81,-118.20 249.22,-125.78 246.79,-129.70 244.35,-133.63 242.41,-136.45 240.47,-139.28 240.28,-139.72 240.10,-140.16 240.07,-140.64 240.04,-141.11 240.16,-141.58 240.28,-142.04 240.54,-142.44 240.81,-142.84 241.18,-143.13 241.56,-143.42 242.01,-143.58 242.46,-143.74 242.94,-143.75 243.42,-143.75 243.87,-143.61 244.32,-143.46 244.71,-143.18 245.09,-142.89 245.37,-142.50 245.64,-142.11 245.77,-141.65 245.91,-141.19 245.89,-140.72 245.87,-140.24 245.70,-139.79 245.53,-139.35 245.22,-138.98 244.92,-138.61 244.51,-138.36 244.11,-138.11 243.64,-138.00 243.18,-137.89 242.70,-137.93 242.22,-137.98 241.79,-138.17 241.35,-138.37 241.00,-138.69 240.65,-139.02 240.42,-139.44 240.19,-139.86 240.11,-140.33 240.02,-140.80 240.10,-141.27 240.17,-141.74 240.38,-142.17 240.60,-142.59 240.95,-142.92 241.29,-143.26 241.72,-143.46 242.15,-143.67 242.62,-143.73 243.10,-143.78 243.57,-143.69 244.03,-143.59 244.45,-143.35 244.86,-143.11 245.17,-142.75 245.49,-142.39 245.49,-142.39 245.49,-142.39 247.15,-139.39 248.82,-136.40 251.27,-132.45 253.72,-128.50 258.38,-120.78 263.04,-113.06 269.64,-100.43 276.24,-87.80 283.55,-68.86 290.85,-49.91 295.82,-24.02 300.79,1.86 300.34,34.24 299.89,66.62 293.92,97.00 287.95,127.37 277.29,150.03 266.64,172.69 253.17,189.07 239.71,205.45 225.01,215.46 210.31,225.48 195.13,230.33 179.94,235.19 166.27,234.96 152.61,234.74 140.76,230.63 128.91,226.52 119.05,219.13 109.19,211.73 102.20,201.52 95.21,191.32 91.20,178.88 87.20,166.44 86.61,153.07 86.02,139.71 88.40,125.70 90.79,111.69 95.33,99.45 99.86,87.20 106.86,78.70 113.86,70.21 122.95,64.72 132.03,59.23 140.77,58.02 149.50,56.81 156.50,58.53 163.49,60.25 168.44,63.57 173.38,66.89 175.07,71.68 176.76,76.48 175.13,82.12 173.51,87.76 168.83,93.96 164.15,100.16 155.70,107.02 147.24,113.88 135.51,120.56 123.77,127.24 108.99,132.89 94.22,138.55 77.79,141.62 61.37,144.69 45.90,144.22 30.42,143.75 17.73,140.73 5.03,137.72 -3.38,132.37 -11.80,127.01 -16.66,119.47 -21.52,111.93 -23.40,102.54 -25.28,93.15 -25.20,82.54 -25.13,71.92 -24.23,60.97 -23.32,50.03 -21.42,40.15 -19.52,30.27 -16.43,22.06 -13.33,13.85 -10.09,8.02 -6.84,2.18 -4.59,-0.00 -2.33,-2.19 -2.03,-2.44 -1.73,-2.69 -1.38,-2.86 -1.04,-3.03 -0.66,-3.11 -0.28,-3.19 0.09,-3.18 0.48,-3.16 0.85,-3.06 1.23,-2.95 1.56,-2.76 1.90,-2.57 2.18,-2.31 2.46,-2.04 2.67,-1.72 2.88,-1.39 3.00,-1.03 3.13,-0.66 3.16,-0.28 3.20,0.10 3.14,0.48 3.08,0.86 2.93,1.22 2.79,1.57 2.56,1.88 2.33,2.20 2.33,2.20 L 2.33,2.19 Z"></path></g><g transform="translate(235.09618525090423 12.6420857544677) rotate(0 25.759145977342087 66.60912410182414)" stroke="none"><path fill="#d3d3d3" d="M 2.33,-2.08 Q 2.33,-2.08 5.08,1.08 7.84,4.26 11.61,9.23 15.38,14.21 19.01,19.76 22.64,25.31 25.95,31.89 29.26,38.48 32.48,46.51 35.69,54.53 38.34,62.41 40.99,70.29 43.19,77.64 45.38,84.99 47.03,91.31 48.68,97.64 49.77,102.73 50.86,107.82 51.63,112.05 52.40,116.28 53.03,119.76 53.66,123.24 54.11,125.71 54.57,128.18 53.99,130.00 53.42,131.82 53.41,132.25 53.40,132.67 53.28,133.08 53.17,133.48 52.96,133.85 52.76,134.22 52.47,134.53 52.18,134.83 51.82,135.06 51.47,135.29 51.07,135.43 50.67,135.57 50.25,135.61 49.83,135.65 49.41,135.58 49.00,135.52 48.61,135.36 48.22,135.20 47.88,134.95 47.54,134.70 47.27,134.38 46.99,134.05 46.81,133.67 46.62,133.29 46.53,132.88 46.45,132.47 47.38,133.86 48.32,135.25 47.86,134.92 47.41,134.58 47.09,134.11 46.77,133.64 46.61,133.10 46.45,132.55 46.48,131.99 46.51,131.42 46.71,130.89 46.92,130.37 47.28,129.93 47.64,129.50 48.13,129.20 48.61,128.90 49.16,128.78 49.71,128.65 50.28,128.71 50.84,128.76 51.36,129.00 51.87,129.23 52.29,129.62 52.70,130.00 52.97,130.50 53.24,131.00 53.34,131.56 53.43,132.12 53.35,132.68 53.26,133.24 53.00,133.74 52.74,134.24 52.33,134.64 51.92,135.03 51.41,135.27 50.90,135.51 50.33,135.58 49.77,135.65 49.22,135.53 48.66,135.41 48.18,135.12 47.69,134.83 47.32,134.41 46.95,133.98 46.73,133.45 46.52,132.93 46.48,132.36 46.45,131.80 46.60,131.25 46.74,130.70 47.06,130.23 47.37,129.76 47.82,129.41 48.27,129.07 48.80,128.88 49.34,128.70 49.90,128.69 50.47,128.69 51.95,130.26 53.42,131.82 53.41,132.25 53.40,132.67 53.28,133.07 53.17,133.48 52.96,133.85 52.76,134.22 52.47,134.53 52.18,134.83 51.83,135.06 51.47,135.29 51.07,135.43 50.67,135.57 50.25,135.61 49.83,135.65 49.42,135.58 49.00,135.52 48.61,135.36 48.22,135.20 47.88,134.95 47.54,134.70 47.27,134.38 46.99,134.05 46.81,133.67 46.62,133.29 46.53,132.88 46.45,132.47 47.12,130.64 47.79,128.81 47.80,126.42 47.81,124.04 47.50,120.63 47.19,117.22 46.43,113.08 45.67,108.93 44.59,103.96 43.52,98.99 41.88,92.76 40.24,86.53 38.05,79.28 35.86,72.02 33.24,64.30 30.62,56.57 27.46,48.78 24.30,40.99 21.11,34.71 17.91,28.43 14.34,23.09 10.76,17.76 7.05,13.01 3.33,8.27 0.50,5.17 -2.33,2.08 -2.55,1.77 -2.76,1.46 -2.90,1.11 -3.03,0.75 -3.08,0.38 -3.12,0.01 -3.08,-0.36 -3.04,-0.73 -2.90,-1.09 -2.77,-1.44 -2.56,-1.75 -2.34,-2.06 -2.06,-2.31 -1.78,-2.56 -1.45,-2.74 -1.11,-2.92 -0.75,-3.01 -0.38,-3.10 -0.00,-3.10 0.36,-3.10 0.73,-3.01 1.10,-2.92 1.43,-2.75 1.76,-2.58 2.05,-2.33 2.33,-2.08 2.33,-2.08 L 2.33,-2.08 Z"></path></g><g transform="translate(239.0902572292798 10) rotate(0 55.10533991142552 49.31179331108814)" stroke="none"><path fill="#d3d3d3" d="M 2.69,-1.57 Q 2.69,-1.57 5.44,3.27 8.20,8.12 12.22,13.65 16.25,19.18 21.66,25.49 27.08,31.80 33.19,38.25 39.31,44.69 45.47,50.62 51.63,56.55 58.17,62.09 64.71,67.62 71.01,72.19 77.30,76.77 82.25,79.93 87.19,83.08 90.88,85.19 94.57,87.30 97.56,88.71 100.56,90.12 102.93,91.12 105.29,92.12 108.82,93.58 112.36,95.04 112.88,95.44 113.40,95.84 113.77,96.39 114.13,96.93 114.30,97.57 114.48,98.20 114.44,98.86 114.40,99.52 114.15,100.13 113.90,100.74 113.47,101.24 113.04,101.74 112.48,102.07 111.91,102.41 111.27,102.55 110.63,102.68 109.97,102.61 109.32,102.53 108.72,102.25 108.13,101.97 107.65,101.52 107.18,101.06 106.87,100.48 106.57,99.89 106.46,99.24 106.36,98.59 106.47,97.94 106.58,97.30 106.89,96.72 107.21,96.14 107.69,95.69 108.17,95.24 108.77,94.96 109.37,94.69 110.02,94.62 110.67,94.56 111.32,94.70 111.96,94.85 112.52,95.19 113.08,95.53 113.51,96.04 113.93,96.54 114.17,97.16 114.41,97.77 114.44,98.43 114.47,99.08 114.29,99.72 114.11,100.35 113.74,100.89 113.37,101.44 112.84,101.83 112.31,102.23 111.69,102.43 111.06,102.64 110.40,102.63 109.75,102.63 109.12,102.42 108.50,102.20 108.50,102.20 108.50,102.20 105.31,100.19 102.11,98.18 99.92,96.79 97.73,95.41 94.83,93.66 91.93,91.91 88.13,89.75 84.33,87.58 79.24,84.34 74.15,81.11 67.69,76.43 61.23,71.74 54.55,66.12 47.86,60.49 41.59,54.50 35.31,48.51 29.06,42.00 22.81,35.49 17.21,29.05 11.60,22.61 7.32,16.87 3.03,11.14 0.17,6.35 -2.69,1.57 -2.84,1.22 -2.99,0.88 -3.05,0.51 -3.12,0.13 -3.09,-0.23 -3.06,-0.61 -2.94,-0.96 -2.82,-1.32 -2.62,-1.64 -2.42,-1.96 -2.15,-2.22 -1.88,-2.48 -1.56,-2.67 -1.23,-2.86 -0.87,-2.97 -0.51,-3.08 -0.13,-3.09 0.23,-3.11 0.60,-3.04 0.97,-2.96 1.31,-2.80 1.65,-2.64 1.95,-2.41 2.24,-2.17 2.47,-1.87 2.69,-1.57 2.69,-1.57 L 2.69,-1.57 Z"></path></g></svg>