<?xml version="1.0" standalone="no"?>
<!DOCTYPE svg PUBLIC "-//W3C//DTD SVG 1.1//EN" "http://www.w3.org/Graphics/SVG/1.1/DTD/svg11.dtd">
<svg version="1.1" xmlns="http://www.w3.org/2000/svg" viewBox="0 0 421.49230335189 411.90938691271253" width="421.49230335189" height="411.90938691271253"><!-- svg-source:excalidraw --><metadata></metadata><defs><style class="style-fonts">
      </style></defs><g transform="translate(99.14064099532993 264.5732933439928) rotate(0 111.60551068061505 -58.61859988763655)" stroke="none"><path fill="#d3d3d3" d="M -0.55,-3.42 Q -0.55,-3.42 3.05,-4.03 6.67,-4.64 11.30,-5.70 15.93,-6.77 22.30,-8.55 28.68,-10.33 36.26,-12.56 43.84,-14.80 51.43,-17.29 59.03,-19.79 65.51,-22.20 71.99,-24.60 77.00,-26.68 82.02,-28.77 85.69,-30.51 89.36,-32.26 91.57,-33.65 93.78,-35.04 95.54,-36.30 97.30,-37.56 97.74,-37.72 98.17,-37.88 98.63,-37.93 99.10,-37.98 99.56,-37.92 100.02,-37.86 100.45,-37.69 100.89,-37.52 101.27,-37.25 101.65,-36.98 101.95,-36.63 102.26,-36.27 102.47,-35.86 102.68,-35.45 102.79,-34.99 102.89,-34.54 102.89,-34.07 102.88,-33.61 102.76,-33.16 102.65,-32.71 102.43,-32.30 102.21,-31.89 101.89,-31.54 101.58,-31.20 101.19,-30.94 100.81,-30.68 96.34,-30.60 91.88,-30.52 85.04,-30.31 78.20,-30.09 67.37,-29.12 56.54,-28.15 42.84,-26.93 29.14,-25.71 15.23,-24.86 1.33,-24.02 -11.29,-23.67 -23.92,-23.33 -34.98,-23.57 -46.05,-23.81 -54.42,-24.68 -62.80,-25.55 -68.63,-26.77 -74.46,-27.99 -78.37,-29.14 -82.29,-30.30 -84.62,-31.00 -86.95,-31.70 -88.84,-33.75 -90.74,-35.79 -86.89,-39.11 -83.05,-42.43 -75.95,-42.89 -68.85,-43.35 -57.46,-43.62 -46.08,-43.88 -30.87,-43.95 -15.67,-44.01 0.71,-43.96 17.10,-43.91 32.96,-43.71 48.83,-43.51 63.11,-43.30 77.40,-43.10 87.98,-42.99 98.57,-42.89 105.55,-42.97 112.54,-43.04 116.52,-43.38 120.50,-43.72 111.90,-48.29 103.30,-52.86 93.12,-58.36 82.95,-63.86 71.83,-69.96 60.71,-76.07 49.67,-82.76 38.64,-89.45 28.43,-96.65 18.23,-103.85 10.42,-110.36 2.61,-116.87 -2.71,-122.25 -8.04,-127.63 -11.60,-131.91 -15.15,-136.19 -17.36,-139.10 -19.58,-142.02 -20.87,-143.90 -22.17,-145.77 -22.35,-149.51 -22.54,-153.25 -18.45,-154.82 -14.36,-156.39 -9.41,-155.37 -4.46,-154.35 3.63,-151.45 11.73,-148.55 23.18,-143.77 34.62,-138.99 48.35,-132.85 62.08,-126.71 75.74,-120.34 89.40,-113.97 100.47,-108.47 111.54,-102.96 119.60,-98.70 127.66,-94.44 133.08,-91.44 138.51,-88.44 141.66,-86.77 144.80,-85.10 141.11,-93.07 137.41,-101.05 132.86,-113.35 128.31,-125.66 122.86,-140.40 117.41,-155.14 112.01,-170.08 106.61,-185.03 102.07,-197.82 97.52,-210.61 94.36,-219.73 91.21,-228.85 89.27,-234.96 87.33,-241.07 86.19,-244.51 85.04,-247.95 84.67,-250.31 84.29,-252.68 86.20,-254.63 88.11,-256.59 90.69,-256.37 93.26,-256.16 96.56,-252.61 99.86,-249.07 103.40,-242.60 106.94,-236.13 110.56,-227.51 114.18,-218.90 117.97,-208.68 121.76,-198.47 125.92,-187.05 130.09,-175.63 134.29,-164.53 138.48,-153.44 141.96,-144.72 145.43,-136.01 147.97,-129.97 150.52,-123.93 152.32,-119.77 154.13,-115.62 155.43,-113.31 156.74,-111.00 158.12,-109.59 159.49,-108.17 159.67,-107.75 159.84,-107.32 159.90,-106.87 159.97,-106.41 159.92,-105.95 159.88,-105.50 159.73,-105.07 159.57,-104.63 159.32,-104.25 159.07,-103.87 158.73,-103.55 158.39,-103.24 157.99,-103.02 157.59,-102.80 157.15,-102.68 156.70,-102.56 156.24,-102.55 155.78,-102.54 155.34,-102.64 154.89,-102.74 154.48,-102.94 154.07,-103.15 153.71,-103.45 153.36,-103.74 153.10,-104.11 152.83,-104.49 153.59,-107.84 154.34,-111.20 156.36,-115.83 158.37,-120.47 161.68,-128.06 164.99,-135.65 169.38,-144.71 173.78,-153.77 179.47,-163.38 185.16,-172.99 191.85,-181.94 198.55,-190.89 205.62,-198.36 212.69,-205.83 219.40,-211.36 226.11,-216.90 232.41,-220.51 238.72,-224.13 244.17,-226.14 249.63,-228.14 253.96,-229.09 258.29,-230.03 261.65,-230.53 265.02,-231.03 267.72,-230.70 270.43,-230.37 272.61,-228.28 274.79,-226.18 274.97,-222.51 275.16,-218.85 272.51,-214.15 269.87,-209.45 265.58,-203.77 261.29,-198.09 255.73,-191.28 250.17,-184.48 243.42,-176.71 236.67,-168.93 229.01,-160.45 221.35,-151.97 213.69,-143.71 206.03,-135.45 199.79,-128.60 193.56,-121.76 189.02,-116.58 184.49,-111.39 181.36,-107.61 178.22,-103.84 176.67,-101.36 175.13,-98.88 177.70,-99.04 180.26,-99.20 186.91,-99.08 193.56,-98.95 202.75,-98.97 211.94,-98.98 222.74,-98.95 233.54,-98.91 244.31,-98.45 255.07,-97.99 264.55,-96.55 274.04,-95.11 281.39,-93.02 288.74,-90.94 293.94,-88.65 299.13,-86.37 302.77,-84.13 306.40,-81.90 308.76,-80.09 311.11,-78.28 312.58,-76.44 314.05,-74.60 314.48,-72.05 314.91,-69.50 313.53,-66.79 312.14,-64.08 308.25,-61.88 304.36,-59.67 298.23,-57.89 292.10,-56.11 283.83,-54.43 275.57,-52.76 265.39,-51.36 255.21,-49.97 244.37,-49.09 233.53,-48.21 224.29,-47.81 215.05,-47.41 208.22,-47.42 201.40,-47.42 196.60,-47.74 191.80,-48.05 188.92,-48.22 186.04,-48.38 184.01,-48.61 181.99,-48.84 181.56,-48.99 181.12,-49.15 180.74,-49.40 180.36,-49.65 180.05,-49.99 179.73,-50.32 179.51,-50.72 179.29,-51.12 179.17,-51.57 179.05,-52.01 179.04,-52.47 179.03,-52.93 179.13,-53.37 179.23,-53.82 179.43,-54.23 179.64,-54.64 179.93,-54.99 180.23,-55.34 180.60,-55.61 180.97,-55.88 181.40,-56.05 181.82,-56.22 182.28,-56.29 182.73,-56.35 183.19,-56.31 183.64,-56.26 188.01,-55.30 192.38,-54.34 198.08,-51.19 203.78,-48.03 211.00,-43.06 218.23,-38.09 226.35,-31.79 234.47,-25.49 242.50,-18.52 250.53,-11.55 256.95,-5.25 263.36,1.05 267.86,6.22 272.35,11.39 275.48,16.15 278.62,20.90 280.64,25.27 282.65,29.64 283.82,33.58 284.98,37.52 285.58,41.17 286.17,44.82 286.53,47.84 286.90,50.85 286.85,53.38 286.80,55.91 285.48,58.34 284.15,60.77 280.98,62.26 277.82,63.75 272.97,62.07 268.13,60.40 261.58,54.49 255.04,48.58 246.02,38.70 237.01,28.81 226.56,17.12 216.11,5.44 206.28,-5.34 196.46,-16.14 188.42,-24.91 180.38,-33.68 174.79,-39.68 169.19,-45.68 165.74,-49.30 162.28,-52.92 160.43,-54.44 158.58,-55.95 157.82,-56.14 157.06,-56.33 156.80,-56.66 156.54,-56.99 156.36,-57.38 156.19,-57.76 156.11,-58.18 156.03,-58.59 156.05,-59.02 156.08,-59.44 156.20,-59.84 156.33,-60.25 156.54,-60.61 156.76,-60.97 157.06,-61.27 157.36,-61.57 157.72,-61.79 158.08,-62.01 158.48,-62.14 158.88,-62.27 159.31,-62.30 159.73,-62.32 160.14,-62.25 160.56,-62.17 160.95,-62.00 161.33,-61.83 161.67,-61.57 162.00,-61.31 163.34,-58.42 164.68,-55.53 167.98,-49.13 171.28,-42.73 177.47,-31.18 183.66,-19.63 190.99,-4.93 198.32,9.77 204.61,24.41 210.90,39.04 215.09,52.61 219.28,66.17 221.49,78.00 223.70,89.83 224.27,98.77 224.84,107.71 223.90,113.99 222.97,120.27 220.90,124.64 218.82,129.00 216.37,131.92 213.91,134.83 210.94,136.63 207.98,138.43 204.15,138.67 200.33,138.91 195.85,135.43 191.37,131.95 186.33,124.32 181.30,116.69 176.30,106.63 171.30,96.57 166.87,85.33 162.45,74.09 158.95,63.34 155.45,52.58 153.21,43.82 150.96,35.06 149.70,28.55 148.44,22.04 147.77,17.97 147.10,13.91 146.59,11.75 146.07,9.58 145.77,8.68 145.47,7.78 145.46,7.34 145.46,6.91 145.57,6.49 145.67,6.07 145.87,5.68 146.07,5.30 146.36,4.97 146.64,4.65 147.00,4.40 147.35,4.15 147.76,4.00 148.16,3.84 148.59,3.79 149.02,3.74 149.45,3.79 149.88,3.84 150.29,3.99 150.70,4.15 151.05,4.39 151.41,4.64 151.70,4.96 151.99,5.28 152.19,5.67 152.39,6.05 152.50,6.47 152.60,6.89 151.15,10.38 149.70,13.87 147.30,18.63 144.90,23.38 141.09,30.86 137.28,38.34 131.85,48.03 126.42,57.73 119.82,68.32 113.21,78.92 107.06,88.14 100.92,97.36 95.87,104.32 90.83,111.27 86.62,116.27 82.42,121.27 79.06,124.38 75.71,127.48 73.20,129.36 70.69,131.24 68.24,132.15 65.80,133.07 63.07,132.36 60.34,131.66 58.35,129.01 56.36,126.36 55.56,122.54 54.76,118.72 54.94,113.67 55.12,108.61 56.43,101.81 57.74,95.01 60.86,85.60 63.98,76.18 68.36,65.30 72.73,54.43 77.63,43.83 82.53,33.23 87.45,23.63 92.36,14.04 96.52,6.65 100.68,-0.74 103.80,-5.87 106.91,-11.00 108.89,-14.33 110.87,-17.66 111.87,-19.62 112.87,-21.57 113.97,-23.19 115.07,-24.81 115.51,-25.20 115.94,-25.60 116.48,-25.84 117.01,-26.08 117.60,-26.13 118.19,-26.18 118.76,-26.05 119.33,-25.91 119.83,-25.60 120.33,-25.29 120.70,-24.83 121.07,-24.38 121.28,-23.83 121.49,-23.28 121.51,-22.69 121.53,-22.11 121.37,-21.54 121.20,-20.98 120.86,-20.50 120.52,-20.02 120.05,-19.67 119.57,-19.32 119.01,-19.14 118.45,-18.96 117.87,-18.97 117.28,-18.98 116.72,-19.18 116.17,-19.38 115.71,-19.74 115.25,-20.11 114.92,-20.60 114.60,-21.09 114.46,-21.66 114.31,-22.23 114.35,-22.82 114.39,-23.40 114.62,-23.94 114.85,-24.49 115.23,-24.93 115.62,-25.37 116.13,-25.66 116.64,-25.96 117.22,-26.07 117.79,-26.19 118.38,-26.12 118.96,-26.04 119.49,-25.79 120.02,-25.53 120.44,-25.12 120.86,-24.71 121.12,-24.18 121.39,-23.66 121.48,-23.08 121.56,-22.50 121.46,-21.92 121.35,-21.34 121.07,-20.83 120.78,-20.31 120.78,-20.31 120.78,-20.31 118.29,-17.46 115.80,-14.61 113.72,-11.38 111.64,-8.15 108.61,-3.08 105.58,1.98 101.53,9.31 97.49,16.64 92.71,26.16 87.93,35.69 83.21,46.19 78.49,56.70 74.35,67.44 70.21,78.18 67.43,87.20 64.66,96.22 63.72,102.42 62.78,108.62 62.97,112.92 63.16,117.23 63.52,119.83 63.88,122.43 65.62,124.15 67.36,125.88 69.69,124.68 72.02,123.49 75.11,120.61 78.19,117.74 82.24,112.86 86.28,107.99 91.20,101.10 96.13,94.20 102.15,85.01 108.17,75.81 114.59,65.28 121.02,54.75 126.23,45.11 131.43,35.47 135.00,27.94 138.57,20.42 142.02,14.10 145.47,7.78 145.46,7.34 145.46,6.91 145.57,6.49 145.67,6.07 145.87,5.68 146.07,5.30 146.36,4.97 146.64,4.65 147.00,4.40 147.35,4.15 147.76,4.00 148.16,3.84 148.59,3.79 149.02,3.74 149.45,3.79 149.88,3.84 150.29,3.99 150.70,4.15 151.05,4.39 151.41,4.64 151.70,4.96 151.99,5.28 152.19,5.67 152.39,6.05 152.50,6.47 152.60,6.89 152.60,7.83 152.60,8.77 152.62,10.91 152.63,13.05 153.22,17.01 153.81,20.98 155.08,27.32 156.34,33.66 158.60,42.23 160.85,50.81 164.37,61.37 167.88,71.92 172.30,82.88 176.72,93.84 181.67,103.50 186.61,113.16 191.19,119.97 195.77,126.79 200.49,129.56 205.22,132.33 207.43,131.49 209.63,130.64 211.83,128.62 214.03,126.59 215.84,122.99 217.64,119.39 218.51,113.71 219.37,108.04 218.80,99.44 218.23,90.85 216.05,79.35 213.86,67.85 209.70,54.61 205.54,41.36 199.23,26.93 192.92,12.49 185.50,-2.04 178.08,-16.59 171.71,-28.06 165.33,-39.53 161.20,-47.93 157.06,-56.33 156.80,-56.66 156.54,-56.99 156.36,-57.38 156.19,-57.76 156.11,-58.18 156.03,-58.59 156.05,-59.02 156.08,-59.44 156.20,-59.84 156.33,-60.25 156.54,-60.61 156.76,-60.97 157.06,-61.27 157.36,-61.57 157.72,-61.79 158.08,-62.01 158.48,-62.14 158.88,-62.27 159.31,-62.30 159.73,-62.32 160.14,-62.25 160.56,-62.17 160.95,-62.00 161.33,-61.83 161.67,-61.57 162.00,-61.31 162.50,-61.01 162.99,-60.71 164.64,-58.75 166.30,-56.80 169.82,-53.19 173.35,-49.59 179.02,-43.63 184.69,-37.67 192.82,-28.97 200.95,-20.27 210.91,-9.57 220.87,1.12 231.45,12.63 242.03,24.13 251.01,33.57 259.98,43.00 265.67,47.91 271.36,52.83 274.68,54.12 277.99,55.40 278.99,53.34 279.99,51.28 279.99,48.43 279.98,45.59 279.71,42.31 279.44,39.02 278.56,35.47 277.69,31.92 275.84,27.94 274.00,23.96 271.04,19.54 268.09,15.12 263.70,10.17 259.31,5.22 252.96,-0.88 246.61,-6.99 238.64,-13.73 230.66,-20.48 222.58,-26.50 214.51,-32.52 207.46,-37.08 200.41,-41.63 195.22,-44.19 190.03,-46.75 186.01,-47.80 181.99,-48.84 181.56,-48.99 181.12,-49.15 180.74,-49.40 180.36,-49.65 180.05,-49.99 179.73,-50.32 179.51,-50.72 179.29,-51.12 179.17,-51.57 179.05,-52.01 179.04,-52.47 179.03,-52.92 179.13,-53.37 179.23,-53.82 179.43,-54.23 179.64,-54.64 179.93,-54.99 180.23,-55.34 180.60,-55.61 180.97,-55.88 181.40,-56.05 181.82,-56.22 182.28,-56.29 182.73,-56.35 183.18,-56.31 183.64,-56.26 185.28,-55.53 186.91,-54.79 189.52,-54.22 192.14,-53.64 196.75,-53.39 201.36,-53.14 208.06,-53.23 214.76,-53.31 223.87,-53.82 232.98,-54.33 243.62,-55.36 254.26,-56.38 264.16,-57.96 274.07,-59.54 281.93,-61.43 289.79,-63.31 295.11,-65.20 300.43,-67.10 303.56,-70.29 306.68,-73.48 305.03,-75.30 303.39,-77.12 300.15,-79.21 296.91,-81.29 292.06,-83.39 287.21,-85.49 280.20,-87.42 273.18,-89.36 264.02,-90.66 254.85,-91.97 244.21,-92.28 233.58,-92.60 222.82,-92.44 212.05,-92.27 202.83,-91.99 193.62,-91.71 186.76,-91.47 179.91,-91.23 174.45,-92.19 169.00,-93.15 169.54,-97.86 170.07,-102.56 172.05,-104.93 174.03,-107.29 177.19,-111.14 180.34,-114.99 184.88,-120.25 189.42,-125.51 195.62,-132.41 201.83,-139.31 209.40,-147.60 216.97,-155.89 224.49,-164.40 232.02,-172.91 238.57,-180.70 245.13,-188.50 250.42,-195.31 255.72,-202.13 259.52,-207.60 263.32,-213.07 265.15,-216.48 266.98,-219.88 266.24,-222.42 265.49,-224.95 262.46,-224.87 259.43,-224.79 255.46,-223.93 251.48,-223.07 246.45,-221.23 241.42,-219.38 235.53,-216.00 229.63,-212.62 223.22,-207.29 216.80,-201.95 210.01,-194.69 203.21,-187.43 196.77,-178.69 190.34,-169.96 184.90,-160.52 179.46,-151.07 175.30,-142.07 171.15,-133.07 168.10,-125.45 165.06,-117.82 162.28,-113.00 159.49,-108.17 159.67,-107.75 159.84,-107.32 159.90,-106.87 159.97,-106.41 159.92,-105.96 159.88,-105.50 159.73,-105.07 159.57,-104.63 159.32,-104.25 159.07,-103.87 158.73,-103.55 158.39,-103.24 157.99,-103.02 157.59,-102.80 157.15,-102.68 156.70,-102.56 156.24,-102.55 155.78,-102.54 155.34,-102.64 154.89,-102.74 154.48,-102.94 154.07,-103.15 153.72,-103.45 153.36,-103.74 153.10,-104.11 152.83,-104.49 151.88,-106.42 150.93,-108.36 150.04,-110.89 149.14,-113.43 147.29,-117.60 145.44,-121.77 142.82,-127.84 140.21,-133.91 136.66,-142.64 133.10,-151.38 128.81,-162.47 124.51,-173.55 120.23,-184.91 115.94,-196.26 112.05,-206.27 108.15,-216.28 104.47,-224.46 100.79,-232.64 97.42,-238.31 94.05,-243.98 92.43,-246.81 90.81,-249.65 91.70,-246.21 92.60,-242.76 94.56,-236.74 96.53,-230.72 99.75,-221.64 102.97,-212.57 107.60,-199.83 112.23,-187.09 117.75,-172.22 123.27,-157.34 128.89,-142.68 134.52,-128.02 139.32,-115.76 144.13,-103.49 147.13,-95.70 150.13,-87.90 150.51,-84.80 150.89,-81.69 146.32,-80.77 141.76,-79.85 138.80,-81.71 135.85,-83.58 130.44,-86.50 125.03,-89.43 117.00,-93.58 108.97,-97.74 97.93,-103.12 86.88,-108.50 73.21,-114.72 59.54,-120.93 45.82,-126.85 32.10,-132.77 20.76,-137.23 9.42,-141.69 1.81,-144.09 -5.80,-146.48 -9.81,-146.97 -13.82,-147.46 -15.14,-149.20 -16.46,-150.94 -15.59,-148.19 -14.71,-145.44 -12.85,-142.54 -10.98,-139.65 -7.57,-135.57 -4.16,-131.49 1.00,-126.32 6.17,-121.15 13.83,-114.82 21.49,-108.50 31.57,-101.48 41.64,-94.45 52.62,-87.92 63.59,-81.39 74.76,-75.44 85.92,-69.48 96.25,-64.14 106.57,-58.79 113.62,-55.05 120.68,-51.31 124.07,-46.52 127.46,-41.74 124.22,-39.95 120.97,-38.17 116.79,-37.86 112.61,-37.55 105.57,-37.43 98.53,-37.32 87.93,-37.36 77.33,-37.39 63.06,-37.52 48.78,-37.64 32.94,-37.72 17.11,-37.80 0.75,-37.70 -15.59,-37.59 -30.71,-37.31 -45.83,-37.03 -57.01,-36.49 -68.18,-35.94 -74.68,-35.17 -81.19,-34.41 -82.78,-36.12 -84.38,-37.83 -82.49,-36.78 -80.59,-35.73 -76.97,-34.53 -73.35,-33.34 -67.80,-32.21 -62.24,-31.07 -54.09,-30.27 -45.94,-29.47 -35.02,-29.30 -24.10,-29.14 -11.58,-29.58 0.93,-30.03 14.73,-31.01 28.53,-31.99 42.20,-33.40 55.86,-34.82 66.82,-36.07 77.79,-37.32 84.91,-37.90 92.02,-38.48 94.66,-38.02 97.30,-37.56 97.73,-37.72 98.17,-37.88 98.63,-37.93 99.10,-37.98 99.56,-37.92 100.02,-37.86 100.45,-37.69 100.89,-37.52 101.27,-37.25 101.65,-36.98 101.95,-36.63 102.26,-36.27 102.47,-35.86 102.68,-35.45 102.79,-34.99 102.89,-34.54 102.89,-34.07 102.88,-33.61 102.76,-33.16 102.65,-32.71 102.43,-32.30 102.21,-31.89 101.89,-31.54 101.58,-31.20 101.19,-30.94 100.81,-30.68 98.77,-29.98 96.74,-29.27 94.24,-28.25 91.74,-27.22 87.95,-25.45 84.16,-23.68 79.06,-21.51 73.97,-19.35 67.41,-16.84 60.86,-14.34 53.21,-11.73 45.57,-9.11 38.00,-6.75 30.43,-4.38 23.99,-2.41 17.55,-0.43 12.67,0.93 7.79,2.29 4.17,2.86 0.55,3.42 0.13,3.44 -0.28,3.46 -0.69,3.37 -1.10,3.29 -1.47,3.11 -1.85,2.93 -2.18,2.66 -2.50,2.40 -2.75,2.06 -3.00,1.73 -3.17,1.34 -3.33,0.96 -3.40,0.55 -3.46,0.13 -3.43,-0.27 -3.40,-0.69 -3.26,-1.09 -3.13,-1.49 -2.91,-1.84 -2.68,-2.19 -2.38,-2.48 -2.08,-2.77 -1.72,-2.98 -1.35,-3.19 -0.95,-3.31 -0.55,-3.42 -0.55,-3.42 L -0.55,-3.42 Z"></path></g></svg>