<svg xmlns="http://www.w3.org/2000/svg" id="Layer_1" viewBox="0 0 24 24" data-name="Layer 1"><path d="m12 12c-3.804 0-5.5-1.696-5.5-5.5s1.696-5.5 5.5-5.5 5.5 1.696 5.5 5.5-1.696 5.5-5.5 5.5zm2.039 2.113c-.336.564-.706 1.118-1.101 1.665.407 1.336.752 2.684 1.002 4.051.134.601-.324 1.171-.94 1.171h-2c-.616 0-1.073-.57-.94-1.171.209-1.287.559-2.624.981-3.988-.413-.548-.791-1.122-1.127-1.724-4.504.546-6.659 3.024-6.913 7.83-.014.274.085.542.273.741s.451.312.726.312h16c.274 0 .537-.113.726-.312.188-.199.287-.467.273-.741-.255-4.822-2.425-7.299-6.96-7.835z" fill="#ffffff"/></svg>